# Blender 3.6.2
# www.blender.org
mtllib cap6.mtl
v 0.008203 0.930862 -0.076484
v -0.068106 0.930862 -0.032427
v -0.068106 0.930862 0.055687
v 0.008203 0.930862 0.099744
v 0.084512 0.930862 0.055687
v 0.084512 0.930862 -0.032427
v 0.008203 0.991996 -0.076209
v -0.068106 0.991996 -0.032153
v -0.068106 0.991996 0.055961
v 0.008203 0.991996 0.100018
v 0.084512 0.991996 0.055961
v 0.084512 0.991996 -0.032153
vn -1.0000 -0.0000 -0.0000
vn 0.5000 0.0039 -0.8660
vn 0.5000 -0.0039 0.8660
vn -0.5000 -0.0039 0.8660
vn -0.5000 0.0039 -0.8660
vn 1.0000 -0.0000 -0.0000
vn -0.0000 -1.0000 -0.0000
vn -0.0000 1.0000 -0.0000
vt 0.000000 0.000000
s 0
f 5/1/1 12/1/1 6/1/1
f 4/1/2 9/1/2 10/1/2
f 2/1/3 7/1/3 8/1/3
f 6/1/4 7/1/4 1/1/4
f 4/1/5 11/1/5 5/1/5
f 3/1/6 8/1/6 9/1/6
f 7/1/7 11/1/7 9/1/7
f 3/1/8 5/1/8 1/1/8
f 5/1/1 11/1/1 12/1/1
f 4/1/2 3/1/2 9/1/2
f 2/1/3 1/1/3 7/1/3
f 6/1/4 12/1/4 7/1/4
f 4/1/5 10/1/5 11/1/5
f 3/1/6 2/1/6 8/1/6
f 9/1/7 8/1/7 7/1/7
f 7/1/7 12/1/7 11/1/7
f 11/1/7 10/1/7 9/1/7
f 1/1/8 2/1/8 3/1/8
f 3/1/8 4/1/8 5/1/8
f 5/1/8 6/1/8 1/1/8
