# Blender 3.6.1
# www.blender.org
mtllib triangle.mtl
o Cylinder
v -0.006939 -0.070171 -1.000000
v -0.006939 0.084049 -1.000000
v 0.491318 -0.063232 0.500000
v 0.491318 0.090988 0.500000
v -0.505196 -0.070171 0.500000
v -0.505196 0.084049 0.500000
vn 0.9490 -0.0000 -0.3152
vn -0.0000 -0.0000 1.0000
vn -0.0070 1.0000 -0.0023
vn -0.9490 -0.0000 -0.3152
vn 0.0070 -1.0000 0.0023
vt 1.000000 0.500000
vt 1.000000 1.000000
vt 0.666667 1.000000
vt 0.666667 0.500000
vt 0.333333 1.000000
vt 0.333333 0.500000
vt 0.457846 0.130000
vt 0.250000 0.490000
vt 0.042154 0.130000
vt -0.000000 1.000000
vt -0.000000 0.500000
vt 0.750000 0.490000
vt 0.957846 0.130000
vt 0.542154 0.130000
s 0
f 1/1/1 2/2/1 4/3/1 3/4/1
f 3/4/2 4/3/2 6/5/2 5/6/2
f 4/7/3 2/8/3 6/9/3
f 5/6/4 6/5/4 2/10/4 1/11/4
f 1/12/5 3/13/5 5/14/5
